<svg xmlns="http://www.w3.org/2000/svg" version="1.1" xmlns:xlink="http://www.w3.org/1999/xlink" xmlns:svgjs="http://svgjs.dev/svgjs" width="1500" height="1500" viewBox="0 0 1500 1500"><rect width="1500" height="1500" fill="#ffffff"></rect><g transform="matrix(0.6666666666666666,0,0,0.6666666666666666,249.98517915309446,656.4647591954022)"><svg viewBox="0 0 307 58" data-background-color="#ffffff" preserveAspectRatio="xMidYMid meet" height="283" width="1500" xmlns="http://www.w3.org/2000/svg" xmlns:xlink="http://www.w3.org/1999/xlink"><g id="tight-bounds" transform="matrix(1,0,0,1,0.004549999999994725,-0.24535000000000196)"><svg viewBox="0 0 306.9909 58.490700000000004" height="58.490700000000004" width="306.9909"><g><svg viewBox="0 0 306.9909 58.490700000000004" height="58.490700000000004" width="306.9909"><g><svg viewBox="0 0 306.9909 58.490700000000004" height="58.490700000000004" width="306.9909"><g id="textblocktransform"><svg viewBox="0 0 306.9909 58.490700000000004" height="58.490700000000004" width="306.9909" id="textblock"><g><svg viewBox="0 0 306.9909 58.490700000000004" height="58.490700000000004" width="306.9909"><g><svg><g></g><g></g></svg></g><g><svg><g><svg></svg></g><g></g></svg></g><g id="text-0"><svg viewBox="0 0 306.9909 58.490700000000004" height="58.490700000000004" width="306.9909"><g transform="matrix(1,0,0,1,0,0)"><svg width="234.6909" viewBox="-4.6 -28.85 145.04 36.15" height="58.490700000000004" data-palette-color="#ee3e38"><path d="M29.5-10.95L29.5-10.95 17.1-12.6Q9.5 4.65 2.35 6.85L2.35 6.85Q1.05 7.3 0.05 7.3L0.05 7.3Q-3.7 7.3-4.55 4.15L-4.55 4.15Q-4.6 3.95-4.6 3.73-4.6 3.5-4.53 3.18-4.45 2.85-4.2 2.95-3.95 3.05-3.7 3.9L-3.7 3.9Q-3.25 5.35-1.8 5.75L-1.8 5.75Q-0.7 5.95 0.13 5.95 0.95 5.95 1.55 5.75L1.55 5.75Q8.85 3.45 15.2-12.85L15.2-12.85 12.55-13Q11.85-13.05 11.25-13.05L11.25-13.05Q4.9-13.05 3.45-8.95L3.45-8.95Q3.2-8.4 3.2-7.9 3.2-7.4 3.5-6.9 3.8-6.4 3.33-6.28 2.85-6.15 2.55-6.6L2.55-6.6Q2-7.6 2-8.45L2-8.45Q2-11.5 3.13-12.98 4.25-14.45 5.75-14.9L5.75-14.9Q7.55-15.4 9.75-15.4L9.75-15.4 12.8-15.1Q14.4-14.95 15.85-14.65L15.85-14.65Q17.05-17.85 18.75-23.25L18.75-23.25Q16.1-20.9 12.25-20.5L12.25-20.5Q11.75-20.45 11.73-20.85 11.7-21.25 12.3-21.35L12.3-21.35Q14.45-21.55 16.73-23.55 19-25.55 20.2-28.25L20.2-28.25Q20.3-28.85 21.85-28.85 23.4-28.85 23.35-28.25L23.35-28.25Q23.05-27.5 21.13-22.48 19.2-17.45 17.8-14.25L17.8-14.25Q19.1-14 21.6-13.4L21.6-13.4Q26.7-12.25 29.85-11.9L29.85-11.9Q32.75-18.05 33.48-19.78 34.2-21.5 34.2-21.95 34.2-22.4 34.05-22.65L34.05-22.65Q34.2-24.05 36.23-26.33 38.25-28.6 40.05-28.6L40.05-28.6Q40.85-28.6 41.98-28.03 43.1-27.45 43.1-26.55L43.1-26.55Q43.1-26.35 42.85-26.5 42.6-26.65 42.5-26.65L42.5-26.65Q41.25-26.65 39.6-24.88 37.95-23.1 36.35-20.3L36.35-20.3Q33.9-15.95 32-11.7L32-11.7Q36.3-11.7 37.75-13.5L37.75-13.5Q38-13.95 38.25-13.63 38.5-13.3 38.08-12.68 37.65-12.05 36.2-11.45 34.75-10.85 31.6-10.85L31.6-10.85Q29.25-5.3 29.25-2.15L29.25-2.15Q29.25 0.3 30.68 0.3 32.1 0.3 34.93-1.9 37.75-4.1 40.25-7.45L40.25-7.45Q40.4-7.65 40.7-7.53 41-7.4 40.88-7.08 40.75-6.75 40.1-5.8L40.1-5.8Q38-2.95 34.95-0.5L34.95-0.5Q32.7 1.25 30.05 1.25L30.05 1.25Q28.7 1.25 27.98 0.45 27.25-0.35 27.18-1.05 27.1-1.75 27.1-2.35 27.1-2.95 27.3-4.2L27.3-4.2Q27.8-7.4 29.5-10.95ZM63.05-7Q62.3-5.65 60.35-3.55 58.4-1.45 56.85-0.3L56.85-0.3Q54.85 1.15 52.5 1.15L52.5 1.15Q52.05 1.15 51.32 0.73 50.6 0.3 50.35-0.5 50.1-1.3 50.1-2.05L50.1-2.05Q50.1-4.65 51.1-7.2L51.1-7.2Q50.95-7.1 49.72-5.08 48.5-3.05 46.72-1.25 44.95 0.55 43.15 0.55L43.15 0.55Q42.3 0.55 41.2 0.1L41.2 0.1Q39.2-0.8 39.2-3.2L39.2-3.2Q39.2-6.15 41.22-9.28 43.25-12.4 43.8-12.6L43.8-12.6Q44.55-12.8 45.22-12.8 45.9-12.8 46.6-12.53 47.3-12.25 46.4-11.6L46.4-11.6Q42.95-8.45 41.5-4.6L41.5-4.6Q40.95-3.1 40.95-2.08 40.95-1.05 41.47-0.75 42-0.45 42.5-0.45L42.5-0.45Q43.7-0.45 45.77-2.13 47.85-3.8 51.5-9.1L51.5-9.1Q52-9.85 53.25-12.03 54.5-14.2 54.75-14.6L54.75-14.6Q55.55-14.6 56.62-14.23 57.7-13.85 57.35-13.25L57.35-13.25Q54.95-9.25 53.97-7.35 53-5.45 52.65-2.9L52.65-2.9Q52.6-2.45 52.6-1.75 52.6-1.05 53-0.6L53-0.6Q53.75 0.2 55.07-0.53 56.4-1.25 58.7-3.33 61-5.4 62.4-7.4L62.4-7.4Q62.6-7.65 62.87-7.53 63.15-7.4 63.15-7.28 63.15-7.15 63.05-7L63.05-7ZM62.3 0.5L62.3 0.5Q61.65 1.25 62.02 1.7 62.4 2.15 62.87 2.15 63.35 2.15 63.85 2L63.85 2Q66 1.35 68.02-0.58 70.05-2.5 70.05-4.5L70.05-4.5Q70.05-5.6 67.6-6.9L67.6-6.9Q66.45-7.5 66.3-7.6L66.3-7.6Q64.95-8.5 64.6-9.4L64.6-9.4Q63.9-8.2 62.35-5.95L62.35-5.95Q62-5.55 61.7-5.78 61.4-6 61.65-6.4L61.65-6.4Q63.7-9.2 64.35-11.1L64.35-11.1Q64.7-13.85 68.35-16.05 72-18.25 75-18.25L75-18.25Q76.9-18.25 77.67-17.57 78.45-16.9 78.45-16.25 78.45-15.6 78.07-14.75 77.7-13.9 76.55-13.15L76.55-13.15Q76.25-12.95 76.05-13.25L76.05-13.25Q75.95-13.55 76.47-14.08 77-14.6 77.15-15.5 77.3-16.4 76.35-16.6L76.35-16.6Q76.2-16.6 76.05-16.6L76.05-16.6Q74.1-16.6 71.17-15.15 68.25-13.7 66.6-11.4L66.6-11.4Q65.95-10.55 65.95-9.68 65.95-8.8 67.15-8.1L67.15-8.1Q67.65-7.8 68.85-7.15 70.05-6.5 70.55-6.2 71.05-5.9 71.75-5.25 72.45-4.6 72.5-4.05L72.5-4.05Q72.75-2.55 71.1-0.75L71.1-0.75Q68.75 1.85 64.1 2.9L64.1 2.9Q63.05 3.15 61.97 3.15 60.9 3.15 60.5 2.35L60.5 2.35Q60.35 2.15 60.35 1.73 60.35 1.3 61.15 0.35L61.15 0.35Q61.9-0.4 63.55-1.1L63.55-1.1Q63.7-1.15 63.8-1.05 63.9-0.95 63.85-0.8 63.8-0.65 63.32-0.45 62.85-0.25 62.3 0.5ZM77.09 0.5L77.09 0.5Q76.44 1.25 76.82 1.7 77.19 2.15 77.67 2.15 78.14 2.15 78.64 2L78.64 2Q80.79 1.35 82.82-0.58 84.84-2.5 84.84-4.5L84.84-4.5Q84.84-5.6 82.39-6.9L82.39-6.9Q81.24-7.5 81.09-7.6L81.09-7.6Q79.74-8.5 79.39-9.4L79.39-9.4Q78.69-8.2 77.14-5.95L77.14-5.95Q76.79-5.55 76.49-5.78 76.19-6 76.44-6.4L76.44-6.4Q78.49-9.2 79.14-11.1L79.14-11.1Q79.49-13.85 83.14-16.05 86.79-18.25 89.79-18.25L89.79-18.25Q91.69-18.25 92.47-17.57 93.24-16.9 93.24-16.25 93.24-15.6 92.87-14.75 92.49-13.9 91.34-13.15L91.34-13.15Q91.04-12.95 90.84-13.25L90.84-13.25Q90.74-13.55 91.27-14.08 91.79-14.6 91.94-15.5 92.09-16.4 91.14-16.6L91.14-16.6Q90.99-16.6 90.84-16.6L90.84-16.6Q88.89-16.6 85.97-15.15 83.04-13.7 81.39-11.4L81.39-11.4Q80.74-10.55 80.74-9.68 80.74-8.8 81.94-8.1L81.94-8.1Q82.44-7.8 83.64-7.15 84.84-6.5 85.34-6.2 85.84-5.9 86.54-5.25 87.24-4.6 87.29-4.05L87.29-4.05Q87.54-2.55 85.89-0.75L85.89-0.75Q83.54 1.85 78.89 2.9L78.89 2.9Q77.84 3.15 76.77 3.15 75.69 3.15 75.29 2.35L75.29 2.35Q75.14 2.15 75.14 1.73 75.14 1.3 75.94 0.35L75.94 0.35Q76.69-0.4 78.34-1.1L78.34-1.1Q78.49-1.15 78.59-1.05 78.69-0.95 78.64-0.8 78.59-0.65 78.12-0.45 77.64-0.25 77.09 0.5ZM102.94-14.55L102.94-14.55Q105.64-14.55 105.64-11.95L105.64-11.95Q105.64-10.6 104.89-9.75L104.89-9.75Q103.64-7.9 100.84-6.53 98.04-5.15 96.09-5L96.09-5Q95.39-4.95 95.34-5.4L95.34-5.4Q95.29-5.6 95.47-5.65 95.64-5.7 95.74-5.7L95.74-5.7Q96.89-5.8 98.69-6.8L98.69-6.8Q102.04-8.6 103.59-10.5L103.59-10.5Q104.24-11.4 104.24-12.23 104.24-13.05 103.44-13.05L103.44-13.05Q102.79-13.05 101.69-12.5L101.69-12.5Q99.34-11.4 96.74-8.68 94.14-5.95 93.34-3.35L93.34-3.35Q93.09-2.55 93.09-1.78 93.09-1 93.74-0.3 94.39 0.4 95.74 0.4L95.74 0.4Q97.24 0.4 99.19-0.4L99.19-0.4Q104.84-2.7 107.89-7.35L107.89-7.35Q108.19-7.75 108.44-7.5L108.44-7.5Q108.64-7.4 108.64-7.25 108.64-7.1 108.49-6.9L108.49-6.9Q106.99-4.4 104.69-2.45L104.69-2.45Q100.24 1.35 96.04 1.35L96.04 1.35Q92.44 1.35 90.99-0.8L90.99-0.8Q90.44-1.65 90.44-2.85 90.44-4.05 91.09-5.7L91.09-5.7Q92.34-8.55 96.44-11.55 100.54-14.55 102.94-14.55ZM112.14-13.85L112.14-13.85Q113.39-13.85 113.64-13.05L113.64-13.05Q113.74-12.6 113.51-12.18 113.29-11.75 113.19-11.5 113.09-11.25 113.04-11.1L113.04-11.1Q112.79-10.6 112.54-10.15L112.54-10.15Q109.69-4.45 109.54-2.9L109.54-2.9Q109.49-2.45 109.49-1.75 109.49-1.05 109.89-0.6L109.89-0.6Q110.59 0.2 111.89-0.5 113.19-1.2 115.51-3.3 117.84-5.4 119.29-7.4L119.29-7.4Q119.49-7.65 119.74-7.53 119.99-7.4 119.99-7.28 119.99-7.15 119.89-7L119.89-7Q119.14-5.65 117.19-3.55L117.19-3.55Q113.99-0.1 111.84 0.7L111.84 0.7Q110.59 1.15 109.74 1.15L109.74 1.15Q107.74 1.15 107.09-0.75L107.09-0.75Q106.99-1.1 106.99-1.6L106.99-1.6Q106.99-3.35 108.59-6.9L108.59-6.9Q108.34-6.35 106.64-4.4L106.64-4.4Q106.19-3.9 105.94-4.4L105.94-4.4Q105.89-4.5 105.89-4.67 105.89-4.85 106.09-5.1L106.09-5.1Q108.54-8.15 109.94-10.25L109.94-10.25Q109.84-10.5 110.04-10.9L110.04-10.9Q111.04-13.7 111.79-13.85L111.79-13.85Q111.94-13.85 112.14-13.85ZM116.09-20.5L116.09-20.5 115.69-18.9Q115.69-18.45 115.04-17.45 114.39-16.45 114.04-16.45L114.04-16.45Q111.89-16.45 111.89-17.5L111.89-17.5Q111.89-17.7 114.04-19.35L114.04-19.35 114.89-20Q115.69-20.7 115.89-20.7 116.09-20.7 116.09-20.5ZM132.54-14.2L132.54-14.2Q133.69-14.2 133.69-12.98 133.69-11.75 132.54-9.6 131.39-7.45 130.84-6.1L130.84-6.1Q129.89-3.8 129.89-2.43 129.89-1.05 130.29-0.6L130.29-0.6Q131.04 0.2 132.34-0.53 133.64-1.25 135.96-3.33 138.29-5.4 139.69-7.4L139.69-7.4Q139.89-7.65 140.16-7.53 140.44-7.4 140.44-7.28 140.44-7.15 140.34-7L140.34-7Q139.59-5.65 137.64-3.55 135.69-1.45 133.89-0.18 132.09 1.1 130.34 1.1L130.34 1.1Q128.64 1.05 127.94 0.33 127.24-0.4 127.24-1.5 127.24-2.6 127.44-3.63 127.64-4.65 128.19-6L128.19-6Q129.09-8.15 129.76-9.35 130.44-10.55 130.44-10.93 130.44-11.3 130.04-11.3L130.04-11.3Q129.24-11.3 126.99-9.35L126.99-9.35Q125.44-7.9 122.41-3.88 119.39 0.15 118.99 0.4L118.99 0.4Q117.19 1.3 116.74 1.3 116.29 1.3 116.29 1.15 116.29 1 116.39 0.73 116.49 0.45 117.36-2 118.24-4.45 119.26-7.38 120.29-10.3 120.51-10.9 120.74-11.5 120.81-11.93 120.89-12.35 120.99-12.65 121.09-12.95 121.36-13.33 121.64-13.7 122.09-13.73 122.54-13.75 123.24-13.63 123.94-13.5 123.94-13L123.94-13Q123.94-12.65 123.39-11.48 122.84-10.3 120.24-3.4L120.24-3.4Q122.04-5.6 124.79-8.47 127.54-11.35 129.44-12.85L129.44-12.85Q131.34-14.2 132.54-14.2Z" opacity="1" transform="matrix(1,0,0,1,0,0)" fill="#000000" class="wordmark-text-0" data-fill-palette-color="primary"></path></svg></g><g><svg xmlns="http://www.w3.org/2000/svg" xmlns:xlink="http://www.w3.org/1999/xlink" version="1.1" x="248.5002" y="0" viewBox="1 1 62 62" style="enable-background:new 0 0 64 64;" xml:space="preserve" height="58.490700000000004" width="58.490700000000004" class="icon-cg-0" data-fill-palette-color="accent" id="cg-0"><g fill="#ee3e38" data-fill-palette-color="accent"><path d="M48.653 20.7c-0.492-0.806-1.049-1.564-1.671-2.268l8.265-8.265C56.038 10.691 56.983 11 58 11c2.757 0 5-2.243 5-5s-2.243-5-5-5-5 2.243-5 5c0 1.017 0.309 1.962 0.833 2.753l-8.265 8.265C42.746 14.526 39.052 13 35 13c-0.552 0-1 0.448-1 1v4c0 0.552 0.448 1 1 1 5.514 0 10 4.486 10 10 0 0.552 0.448 1 1 1h4c0.552 0 1-0.448 1-1 0-1.908-0.353-3.731-0.969-5.43 4.038 2.085 7.675 4.943 10.666 8.431-4.517 5.286-10.467 9.088-17.099 10.989C46.318 40.12 48 36.257 48 32c0-0.552-0.448-1-1-1h-4c-0.552 0-1 0.448-1 1 0 5.514-4.486 10-10 10s-10-4.486-10-10 4.486-10 10-10c0.552 0 1-0.448 1-1v-4c0-0.552-0.448-1-1-1-2.898 0-5.61 0.786-7.957 2.139-8.945 1.48-17.028 6.153-22.819 13.231-0.3 0.368-0.254 0.951 0.046 1.318 4.461 5.451 10.333 9.48 16.922 11.706l-9.439 9.439C7.962 53.309 7.017 53 6 53c-2.757 0-5 2.243-5 5s2.243 5 5 5 5-2.243 5-5c0-1.017-0.309-1.962-0.833-2.753L20.36 45.054c1.209 0.328 2.437 0.601 3.683 0.807C26.39 47.214 29.102 48 32 48s5.61-0.786 7.957-2.139c8.945-1.48 17.028-6.153 22.819-13.231 0.3-0.368 0.254-0.951-0.046-1.318C58.968 26.716 54.104 23.056 48.653 20.7zM58 3c1.654 0 3 1.346 3 3s-1.346 3-3 3-3-1.346-3-3S56.346 3 58 3zM46.958 28C46.476 22.179 41.821 17.524 36 17.042v-2.006C42.924 15.527 48.473 21.076 48.965 28H46.958zM6 61c-1.654 0-3-1.346-3-3s1.346-3 3-3 3 1.346 3 3S7.654 61 6 61zM3.303 31.999c4.517-5.287 10.467-9.089 17.099-10.989C17.682 23.88 16 27.743 16 32c0 4.257 1.682 8.12 4.402 10.99C13.788 41.094 7.848 37.301 3.303 31.999zM18 32c0-7.383 5.746-13.45 13-13.965v2.006C24.85 20.551 20 25.72 20 32c0 6.617 5.383 12 12 12 6.28 0 11.449-4.85 11.958-11h2.006C45.45 40.254 39.383 46 32 46 24.28 46 18 39.72 18 32z" fill="#000000" data-fill-palette-color="accent"></path><path d="M26 32c0 3.309 2.691 6 6 6s6-2.691 6-6-2.691-6-6-6S26 28.691 26 32zM36 32c0 2.206-1.794 4-4 4s-4-1.794-4-4 1.794-4 4-4S36 29.794 36 32z" fill="#000000" data-fill-palette-color="accent"></path></g></svg></g></svg></g></svg></g></svg></g></svg></g></svg></g><defs></defs></svg><rect width="306.9909" height="58.490700000000004" fill="none" stroke="none" visibility="hidden"></rect></g></svg></g></svg>